<?xml version="1.0" encoding="UTF-8" standalone="no"?>
<!-- Created with Inkscape (http://www.inkscape.org/) -->

<svg
   width="30.836489"
   height="30.242104"
   viewBox="0 0 30.836489 30.242104"
   version="1.1"
   id="svg1"
   xml:space="preserve"
   xmlns:xlink="http://www.w3.org/1999/xlink"
   xmlns="http://www.w3.org/2000/svg"
   xmlns:svg="http://www.w3.org/2000/svg"><defs
     id="defs1"><linearGradient
       id="linearGradient7"><stop
         style="stop-color:#0d2f65;stop-opacity:1;"
         offset="0"
         id="stop7" /><stop
         style="stop-color:#0f64a6;stop-opacity:1;"
         offset="1"
         id="stop8" /></linearGradient><linearGradient
       id="linearGradient6"><stop
         style="stop-color:#102854;stop-opacity:1;"
         offset="0"
         id="stop5" /><stop
         style="stop-color:#114581;stop-opacity:1;"
         offset="1"
         id="stop6" /></linearGradient><linearGradient
       id="linearGradient1"><stop
         style="stop-color:#0f2753;stop-opacity:1;"
         offset="0.14164573"
         id="stop1" /><stop
         style="stop-color:#00b5f0;stop-opacity:1;"
         offset="1"
         id="stop2" /></linearGradient><linearGradient
       xlink:href="#linearGradient1"
       id="linearGradient2"
       x1="16.393826"
       y1="18.562328"
       x2="16.393826"
       y2="3.7818909"
       gradientUnits="userSpaceOnUse"
       gradientTransform="translate(-0.4375,0.75)" /><linearGradient
       xlink:href="#linearGradient6"
       id="linearGradient5"
       gradientUnits="userSpaceOnUse"
       x1="16.393826"
       y1="18.562328"
       x2="16.393826"
       y2="3.7818909"
       gradientTransform="translate(-0.46933638,0.76729367)" /><linearGradient
       xlink:href="#linearGradient7"
       id="linearGradient8"
       x1="17.055614"
       y1="15.036192"
       x2="20.848711"
       y2="11.243095"
       gradientUnits="userSpaceOnUse"
       gradientTransform="translate(-0.4375,0.75)" /></defs><g
     id="layer1"
     transform="translate(-0.7017908,-0.79764639)"><path
       style="display:inline;fill:#ffffff;fill-opacity:1;stroke:#ffffff;stroke-width:0.755906;stroke-opacity:1;paint-order:markers fill stroke"
       d="m 15.418375,22.113339 c 0,0 -0.848555,0.409763 -3.212982,-0.886204 C 10.037684,20.038991 9.1911881,18.421475 9.0212701,17.741802 8.851352,17.06213 8.4386622,14.968133 8.7380733,13.946967 9.2112131,12.333284 9.4159774,12.1938 10.606288,10.829546 c 0.537036,-0.615515 3.512523,-2.6031529 3.908998,-3.3961037 0.396476,-0.7929508 1.019508,-2.4354917 1.019508,-3.2284425 0,-0.7929507 -0.566393,-2.492131 -0.566393,-2.492131 0,0 2.152295,1.4159835 2.718688,2.2655737 0.566394,0.8495901 1.302705,1.9823769 1.415984,3.2284424 0.113279,1.2460656 0.283197,2.6620491 -0.283197,3.5116391 -0.566393,0.84959 -1.715449,2.817458 -1.715449,2.817458 0,0 1.161452,-0.100125 1.802253,-0.690863 0.640801,-0.590739 1.051314,-1.55194 1.051314,-1.55194 0,0 0.190238,-1.6520651 0.180226,-1.8623279 -0.01001,-0.2102629 0.750938,0.4906132 0.750938,0.4906132 0,0 0.400501,0.3304127 0.670839,0.6107637 0.270338,0.28035 1.50783,2.196993 1.635268,3.131542 0.127439,0.934549 0.311517,2.166455 -0.113278,3.525799 -0.424795,1.359344 -1.302705,2.336373 -1.302705,2.336373 0,0 -0.934549,0.906229 -1.331025,1.231905 -0.396475,0.325677 -1.769979,0.93455 -2.237254,1.076148 -0.467274,0.141598 -1.883258,0.297356 -1.883258,0.297356 0,0 1.911578,-0.892069 2.548771,-2.265573 0.637192,-1.373504 0.155758,-2.63373 0.155758,-2.63373 0,0 -0.297357,-0.707991 -0.410636,-0.83543 -0.113278,-0.127438 -0.509754,-0.594713 -0.509754,-0.594713 0,0 0.368156,0.778791 0.311517,1.246066 -0.05664,0.467274 -0.353996,0.707991 -0.608873,0.764631 -0.254877,0.05664 -0.821271,-0.127439 -1.061988,-0.353996 -0.240717,-0.226558 -0.722151,-0.821271 -0.82127,-1.302705 -0.09912,-0.481434 -0.155758,-1.161107 -0.01416,-1.68502 0.141598,-0.523914 0.382315,-1.005349 0.608873,-1.302705 0.226557,-0.297357 0.608873,-0.792951 0.608873,-0.792951 0,0 -1.543422,0.736311 -1.826619,1.061988 -0.283197,0.325676 -1.175266,1.033668 -1.401824,1.331024 -0.226557,0.297357 -0.637192,0.948709 -0.736311,1.246066 -0.09912,0.297356 -0.410635,1.316864 -0.396476,1.71334 0.01416,0.396475 0,1.161106 0.127439,1.543422 0.127438,0.382315 0.339836,0.764631 0.608873,1.189426 0.269037,0.424795 0.82127,0.977029 1.061988,1.104467 0.240717,0.127439 0.846449,0.548381 0.846449,0.548381 z"
       id="path10" /><path
       id="path11"
       style="display:inline;fill:#ffffff;fill-opacity:1;stroke:#ffffff;stroke-width:0.767079;stroke-opacity:1;paint-order:markers fill stroke"
       d="M 8.8368278,7.8305562 C 6.8168545,9.7460879 5.625006,11.919275 5.625,14.6875 c 0,5.609142 4.596077,10.15625 10.265625,10.15625 5.669548,0 10.265625,-4.547108 10.265625,-10.15625 -2.69e-4,-3.024238 -0.95263,-5.1371311 -3.306641,-7.0664063 -0.229544,-0.1912683 -0.349835,-0.2709649 -0.5625,-0.3906249 -9.27e-4,6.85e-5 -0.0049,1.55e-5 -0.0059,0 C 22.136678,7.2148438 22.066365,7.1484378 21.95699,7.1992188 21.847656,7.25 21.75,7.265625 21.679688,7.3164062 c -0.07031,0.050781 -0.136719,0.085937 -0.199219,0.1601563 -0.0625,0.074219 -0.07422,0.09375 -0.125,0.2109375 -0.05078,0.1171875 -0.09375,0.078125 -0.07422,0.2226562 0.01953,0.1445313 0.02344,0.15625 0.04687,0.2617188 v 0.00195 c 2.195997,1.602118 3.4845,4.09173 3.484381,6.732425 0,4.677161 -3.966477,8.46875 -8.859375,8.46875 -4.892898,0 -8.859375,-3.791589 -8.859375,-8.46875 4.846e-4,-2.630952 1.2801122,-5.1122601 3.462891,-6.7148438 0.03662,-0.076903 0.06635,-0.1568785 0.06055,-0.21875 -0.01172,-0.125 -0.04297,-0.3242187 -0.132813,-0.4101562 -0.08984,-0.085937 -0.253906,-0.2773437 -0.332031,-0.3085938 -0.07813,-0.03125 -0.25,-0.054687 -0.355469,-0.046875 -0.105469,0.00781 -0.2412971,0.018306 -0.2910156,0.0625 -0.049718,0.044195 -0.121879,0.093195 -0.1992188,0.1484376 h -0.00195 l -0.00195,0.00195 C 9.2586604,7.4393028 9.0892135,7.5964917 8.8368278,7.8305562 Z" /><path
       style="display:inline;fill:url(#linearGradient2);stroke:none;stroke-width:0.755906;paint-order:markers fill stroke"
       d="m 15.418375,22.113339 c 0,0 -0.848555,0.409763 -3.212982,-0.886204 C 10.037684,20.038991 9.1911881,18.421475 9.0212701,17.741802 8.851352,17.06213 8.4386622,14.968133 8.7380733,13.946967 9.2112131,12.333284 9.4159774,12.1938 10.606288,10.829546 c 0.537036,-0.615515 3.512523,-2.6031529 3.908998,-3.3961037 0.396476,-0.7929508 1.019508,-2.4354917 1.019508,-3.2284425 0,-0.7929507 -0.566393,-2.492131 -0.566393,-2.492131 0,0 2.152295,1.4159835 2.718688,2.2655737 0.566394,0.8495901 1.302705,1.9823769 1.415984,3.2284424 0.113279,1.2460656 0.283197,2.6620491 -0.283197,3.5116391 -0.566393,0.84959 -1.715449,2.817458 -1.715449,2.817458 0,0 1.161452,-0.100125 1.802253,-0.690863 0.640801,-0.590739 1.051314,-1.55194 1.051314,-1.55194 0,0 0.190238,-1.6520651 0.180226,-1.8623279 -0.01001,-0.2102629 0.750938,0.4906132 0.750938,0.4906132 0,0 0.400501,0.3304127 0.670839,0.6107637 0.270338,0.28035 1.50783,2.196993 1.635268,3.131542 0.127439,0.934549 0.311517,2.166455 -0.113278,3.525799 -0.424795,1.359344 -1.302705,2.336373 -1.302705,2.336373 0,0 -0.934549,0.906229 -1.331025,1.231905 -0.396475,0.325677 -1.769979,0.93455 -2.237254,1.076148 -0.467274,0.141598 -1.883258,0.297356 -1.883258,0.297356 0,0 1.911578,-0.892069 2.548771,-2.265573 0.637192,-1.373504 0.155758,-2.63373 0.155758,-2.63373 0,0 -0.297357,-0.707991 -0.410636,-0.83543 -0.113278,-0.127438 -0.509754,-0.594713 -0.509754,-0.594713 0,0 0.368156,0.778791 0.311517,1.246066 -0.05664,0.467274 -0.353996,0.707991 -0.608873,0.764631 -0.254877,0.05664 -0.821271,-0.127439 -1.061988,-0.353996 -0.240717,-0.226558 -0.722151,-0.821271 -0.82127,-1.302705 -0.09912,-0.481434 -0.155758,-1.161107 -0.01416,-1.68502 0.141598,-0.523914 0.382315,-1.005349 0.608873,-1.302705 0.226557,-0.297357 0.608873,-0.792951 0.608873,-0.792951 0,0 -1.543422,0.736311 -1.826619,1.061988 -0.283197,0.325676 -1.175266,1.033668 -1.401824,1.331024 -0.226557,0.297357 -0.637192,0.948709 -0.736311,1.246066 -0.09912,0.297356 -0.410635,1.316864 -0.396476,1.71334 0.01416,0.396475 0,1.161106 0.127439,1.543422 0.127438,0.382315 0.339836,0.764631 0.608873,1.189426 0.269037,0.424795 0.82127,0.977029 1.061988,1.104467 0.240717,0.127439 0.846449,0.548381 0.846449,0.548381 z"
       id="path1" /><path
       id="path1-1"
       style="display:inline;fill:url(#linearGradient5);stroke:none;stroke-width:0.755906;paint-order:markers fill stroke"
       d="m 16.632226,6.3141688 c 0,0 -0.240212,0.8002215 -0.320312,1.0605469 -0.0801,0.2603254 -0.481841,0.8425864 -0.822266,1.5234375 -0.340426,0.6808511 -1.540411,1.8217058 -1.960937,2.0820318 -0.420526,0.260325 -1.342674,1.281633 -1.703125,1.662109 -0.36045,0.380475 -0.919878,1.601474 -1.080078,1.921875 -0.160206,0.3204 -0.220735,1.220955 -0.140625,2.082031 0.465582,2.172716 0.893627,2.054546 0.919922,2.044922 v -0.002 l 1.769531,1.490234 c -0.18291,-0.309671 -0.328799,-0.599675 -0.425781,-0.890625 -0.127439,-0.382315 -0.112793,-1.146492 -0.126953,-1.542967 -0.01416,-0.396476 0.297364,-1.417488 0.396484,-1.714844 0.09912,-0.297357 0.509771,-0.948737 0.736328,-1.246094 0.10227,-0.134229 0.339432,-0.351436 0.595703,-0.580078 0.0135,-0.449964 0.05252,-0.929605 0.359375,-1.5625 0.3204,-0.660826 0.200612,-0.762059 0.460938,-1.302734 0.260325,-0.54063 0.641031,-1.121344 0.941406,-1.8222202 0.300381,-0.7008761 0.239224,-1.2415397 0.359375,-1.8222656 0.12015,-0.5807259 0.04101,-1.3808594 0.04101,-1.3808594 z" /><path
       id="path6"
       style="display:inline;fill:url(#linearGradient8);stroke:none;stroke-width:0.755906;paint-order:markers fill stroke"
       d="m 20.169922,9.390625 c -0.0027,-8.3e-6 -0.0054,0.00158 -0.0078,0.00195 -0.0022,5.692e-4 -0.0079,9.814e-4 -0.0098,0.00195 l -0.002,0.00195 -0.002,0.00195 c -6.89e-4,8.01e-4 -0.0033,0.00495 -0.0039,0.00586 -0.003,0.00612 -0.0064,0.017031 -0.0059,0.027344 0.01001,0.2102628 -0.181641,1.861328 -0.181641,1.861328 0,0 -0.40998,0.961995 -1.050781,1.552734 -0.640801,0.590738 -1.802734,0.689453 -1.802734,0.689453 0,0 0.03115,-0.05065 0.08398,-0.140625 l -0.865234,0.08594 c -0.157855,0.276894 -0.304924,0.622553 -0.404297,0.990234 -0.141598,0.523913 -0.08545,1.204113 0.01367,1.685547 0.09912,0.481434 0.579595,1.076176 0.820312,1.302734 0.240717,0.226557 0.807623,0.410156 1.0625,0.353516 0.254877,-0.05664 0.552735,-0.296398 0.609375,-0.763672 0.05664,-0.467275 -0.3125,-1.246094 -0.3125,-1.246094 0,0 0.396488,0.466312 0.509766,0.59375 0.113279,0.127439 0.412109,0.835938 0.412109,0.835938 0,0 0.180676,0.473063 0.173828,1.15625 0.204176,-0.198713 0.382695,-0.454606 0.589844,-0.794922 0.21875,-0.359375 0.8125,-1.5 1.015625,-1.921875 C 21.015625,15.25 21.093745,14.03125 21.171875,13.65625 21.25,13.28125 21.125,11.90625 21.0625,11.46875 21,11.03125 20.296875,9.671875 20.296875,9.671875 Z" /><path
       id="path9"
       style="display:inline;fill:#0f2753;fill-opacity:1;stroke:none;stroke-width:0.767079;paint-order:markers fill stroke"
       d="M 8.8368278,7.8305562 C 6.8168545,9.7460879 5.625006,11.919275 5.625,14.6875 c 0,5.609142 4.596077,10.15625 10.265625,10.15625 5.669548,0 10.265625,-4.547108 10.265625,-10.15625 -2.69e-4,-3.024238 -0.95263,-5.1371311 -3.306641,-7.0664063 -0.229544,-0.1912683 -0.349835,-0.2709649 -0.5625,-0.3906249 -9.27e-4,6.85e-5 -0.0049,1.55e-5 -0.0059,0 C 22.136678,7.2148438 22.066365,7.1484378 21.95699,7.1992188 21.847656,7.25 21.75,7.265625 21.679688,7.3164062 c -0.07031,0.050781 -0.136719,0.085937 -0.199219,0.1601563 -0.0625,0.074219 -0.07422,0.09375 -0.125,0.2109375 -0.05078,0.1171875 -0.09375,0.078125 -0.07422,0.2226562 0.01953,0.1445313 0.02344,0.15625 0.04687,0.2617188 v 0.00195 c 2.195997,1.602118 3.4845,4.09173 3.484381,6.732425 0,4.677161 -3.966477,8.46875 -8.859375,8.46875 -4.892898,0 -8.859375,-3.791589 -8.859375,-8.46875 4.846e-4,-2.630952 1.2801122,-5.1122601 3.462891,-6.7148438 0.03662,-0.076903 0.06635,-0.1568785 0.06055,-0.21875 -0.01172,-0.125 -0.04297,-0.3242187 -0.132813,-0.4101562 -0.08984,-0.085937 -0.253906,-0.2773437 -0.332031,-0.3085938 -0.07813,-0.03125 -0.25,-0.054687 -0.355469,-0.046875 -0.105469,0.00781 -0.2412971,0.018306 -0.2910156,0.0625 -0.049718,0.044195 -0.121879,0.093195 -0.1992188,0.1484376 h -0.00195 l -0.00195,0.00195 C 9.2586604,7.4393028 9.0892135,7.5964917 8.8368278,7.8305562 Z" /><text
       xml:space="preserve"
       style="font-size:4.7832px;font-family:'Noto Serif CJK HK';-inkscape-font-specification:'Noto Serif CJK HK';text-align:center;writing-mode:lr-tb;direction:ltr;text-anchor:middle;fill:#ffffff;fill-opacity:1;stroke:#ffffff;stroke-width:0.677934;stroke-opacity:1;paint-order:markers fill stroke"
       x="17.809404"
       y="27.466265"
       id="text11"
       transform="scale(0.89684996,1.1150137)"><tspan
         id="tspan11"
         x="17.809404"
         y="27.466265"
         style="font-style:normal;font-variant:normal;font-weight:bold;font-stretch:normal;font-family:'DejaVu Sans';-inkscape-font-specification:'DejaVu Sans Bold';fill:#ffffff;fill-opacity:1;stroke:#ffffff;stroke-width:0.677934;stroke-opacity:1">Kotel Garant</tspan></text><text
       xml:space="preserve"
       style="font-size:4.7832px;font-family:'Noto Serif CJK HK';-inkscape-font-specification:'Noto Serif CJK HK';text-align:center;writing-mode:lr-tb;direction:ltr;text-anchor:middle;fill:#0f2753;fill-opacity:1;stroke:none;stroke-width:0.677934;paint-order:markers fill stroke"
       x="17.809404"
       y="27.466265"
       id="text10"
       transform="scale(0.89684996,1.1150137)"><tspan
         id="tspan10"
         x="17.809404"
         y="27.466265"
         style="font-style:normal;font-variant:normal;font-weight:bold;font-stretch:normal;font-family:'DejaVu Sans';-inkscape-font-specification:'DejaVu Sans Bold';stroke-width:0.677934">Kotel Garant</tspan></text></g></svg>
